<?xml version="1.0"?>
<svg version="1.0" xmlns="http://www.w3.org/2000/svg">
  <polygon points="20,4 100,4 140,44 140,156 20,156" style="stroke:#666666;stroke-width:8;fill:white"/>
  <line x1="96"  y1="44"  x2="140" y2="44"  style="stroke:#666666;stroke-width:8"/>
  <line x1="100" y1="4"   x2="100" y2="44"  style="stroke:#666666;stroke-width:8"/>
  <line x1="30"  y1="20"  x2="90"  y2="20"  style="stroke:#aaaaaa;stroke-width:8"/>
  <line x1="30"  y1="40"  x2="90"  y2="40"  style="stroke:#aaaaaa;stroke-width:8"/>
  <line x1="30"  y1="60"  x2="130" y2="60"  style="stroke:#aaaaaa;stroke-width:8"/>
  <line x1="30"  y1="80"  x2="130" y2="80"  style="stroke:#aaaaaa;stroke-width:8"/>
  <line x1="30"  y1="100" x2="130" y2="100" style="stroke:#aaaaaa;stroke-width:8"/>
  <line x1="30"  y1="120" x2="130" y2="120" style="stroke:#aaaaaa;stroke-width:8"/>
  <line x1="30"  y1="140" x2="130" y2="140" style="stroke:#aaaaaa;stroke-width:8"/>
  <path style="fill:#4584b6" d="m72.7,9c-4.6,0 -8.9,0.4 -12.8,1.1 -11.3,2 -13.3,6.2 -13.3,13.9v10.2h26.7v3.4H46.6 36.6c-7.8,0 -14.6,4.7 -16.7,13.6 -2.5,10.2 -2.6,16.6 0,27.3 1.9,7.9 6.4,13.6 14.2,13.6h9.2v-12.3c0,-8.9 7.6,-16.7 16.7,-16.7h26.7c7.4,0 13.3,-6.1 13.4,-13.6v-25.5C100,16.8 93.9,11.3 86.6,10.1 82,9.3 77.3,9 72.7,9ZM58.3,17.2c2.8,0 5,2.3 5,5.1 0,2.8 -2.3,5.1 -5,5.1 -2.8,0 -5,-2.3 -5,-5.1 0,-2.8 2.2,-5.1 5,-5.1z"/>
  <path style="fill:#ffde57" d="m105.6,40v11.9c0,9.2 -7.8,17 -16.7,17H62.3c-7.3,0 -13.3,6.3 -13.3,13.6V108c0,7.3 6.3,11.5 13.3,13.6 8.4,2.5 16.5,3 26.6,0 6.7,-2 13.3,-5.9 13.3,-13.6V97.8H75.7v-3.4h26.6 13.3c7.7,0 10.6,-5.4 13.3,-13.6 2.8,-8.4 2.7,-16.5 0,-27.2C127,45.8 123.4,40 115.6,40Zm-15,64.7c2.8,0 5,2.3 5,5.1 0,2.8 -2.2,5.1 -5,5.1 -2.8,0 -5,-2.3 -5,-5.1 0,-2.8 2.2,-5.1 5,-5.1z"/>
  <circle r="40" cx="120" cy="120" style="fill:#00aa00"/>
  <rect x="112" y="88"  width="16" height="64" style="fill:#ffffff"/>
  <rect x="88"  y="112" width="64" height="16" style="fill:#ffffff"/>
</svg>